<svg xmlns="http://www.w3.org/2000/svg" width="234" height="234" viewBox="0 0 234 234" fill="none">
  <path d="M84.102 50.5335C84.2296 53.2596 84.921 54.0224 84.6648 54.7455C84.4086 55.4685 80.7125 68.0238 80.358 70.083C80.7582 75.5984 81.3759 82.8032 82.1762 84.5477C83.0841 81.5677 85.4288 74.3348 87.0364 72.2089C86.1285 65.3761 85.7283 55.5095 86.0735 54.7092C87.0029 53.4374 88.2039 52.3887 89.5893 51.6391C89.0254 50.1196 88.3826 48.6305 87.6635 47.1779C86.1004 48.4263 84.5291 49.6256 84.102 50.5335Z" fill="#F8B6B2"/>
  <path d="M86.4279 27.7734C85.8569 28.2578 83.8925 28.6907 83.6117 27.165C83.5204 26.683 82.9939 26.6736 82.9296 27.165C82.6851 29.4185 86.2278 29.7543 87.1182 28.3912C87.3814 27.9911 86.931 27.3487 86.4279 27.7734ZM85.1292 19.4781C84.555 19.2512 83.9312 19.179 83.3204 19.2687C82.3387 19.4594 82.2756 20.5136 83.4374 20.523C83.876 20.5421 84.3116 20.606 84.7372 20.7137C85.644 20.895 85.5609 19.6419 85.1292 19.4781ZM91.425 20.895C90.6618 20.4178 89.7491 20.2399 88.8627 20.3954C88.1607 20.5592 88.1724 21.4952 89.0089 21.5865C89.6818 21.6329 90.3404 21.8022 90.9523 22.0861C91.7888 22.4219 92.0883 21.432 91.425 20.895ZM89.085 23.4304C88.3584 23.3134 88.0589 25.2474 88.7492 25.3387C89.4395 25.4299 89.6618 23.5228 89.0896 23.4304H89.085ZM83.5789 22.5225C82.9167 22.4722 82.671 24.4214 83.3344 24.4939C83.9978 24.5665 84.2482 22.5716 83.5836 22.5225H83.5789ZM90.0982 30.42C90.8166 29.7753 91.2892 30.7464 91.0073 31.0834C90.4776 31.7198 89.7705 32.1841 88.9759 32.417C88.1814 32.65 87.3355 32.6411 86.5461 32.3914C85.7107 32.182 85.637 31.3923 86.5461 31.4823C87.1814 31.6004 87.8359 31.5638 88.4541 31.3756C89.0724 31.1874 89.6363 30.8533 90.0982 30.4013V30.42Z" fill="#043F6D"/>
  <path d="M99.099 42.1843C98.748 41.7374 98.3725 41.7292 97.8272 42.0837C94.7457 44.0964 91.3757 45.6283 87.8331 46.6268C86.6711 45.6748 85.6656 44.5465 84.8531 43.283C84.4436 42.5564 83.6176 43.283 83.944 43.8375C84.6885 45.0765 85.6065 46.2026 86.6701 47.1814C85.8068 48.2693 84.7909 49.2269 83.6539 50.0245C83.2122 48.4351 83.046 46.7818 83.1625 45.1362C83.0806 44.6682 82.3634 44.0283 82.182 46.6455C82.0257 48.2308 82.2305 49.8308 82.781 51.3255C83.345 52.5704 85.8979 49.5085 87.3242 48.2274C87.6752 49.0265 89.1412 53.0794 90.241 52.8887C92.4488 52.5154 96.6011 50.4527 97.6459 48.6638C97.6951 48.5739 97.7143 48.4706 97.7008 48.369C97.6873 48.2674 97.6417 48.1728 97.5708 48.0989C97.4998 48.0249 97.4071 47.9755 97.3062 47.9578C97.2053 47.9401 97.1013 47.955 97.0094 48.0004C95.5282 48.7995 95.1924 50.0444 90.3229 51.6976C89.5424 50.4112 88.8768 49.0585 88.3339 47.6553C91.8851 46.5238 95.2992 45 98.5129 43.1121C99.0663 43.8656 100.12 45.6464 100.82 45.4521C101.592 45.2638 99.3857 42.5552 99.099 42.1843Z" fill="#043F6D"/>
  <path d="M91.7281 35.678C88.9119 37.495 85.9494 38.259 82.8606 36.6865C81.3607 35.933 81.2706 35.4873 81.2706 33.8153C81.3418 28.3061 81.8417 22.8108 82.7659 17.3792C82.8829 16.6526 81.7667 16.38 81.6485 17.1066C81.2671 19.587 79.4501 33.3614 80.2855 35.8149C81.0858 38.1221 84.3103 38.8674 86.4865 38.8674C86.2326 40.0491 85.9775 41.2296 85.733 42.4195C85.6686 42.7108 86.4689 43.9651 87.068 41.7023C87.323 40.7394 87.5044 39.7578 87.7313 38.7855C89.5048 38.6111 91.1608 37.8203 92.4113 36.5508C92.8103 36.0957 92.2745 35.3328 91.7292 35.6417L91.7281 35.678ZM103.213 18.8148C105.112 20.1228 103.903 23.4667 102.486 23.8458C103.621 25.3995 101.278 30.9243 98.252 30.7874C98.1888 32.0966 97.7618 36.8023 97.6073 41.4543C97.6073 41.9819 96.6982 41.8638 96.607 41.3817C96.2981 40.0549 97.034 30.606 97.2434 29.7706C97.5617 28.5258 98.5515 29.0686 99.5507 27.7255C101.968 24.4495 98.5422 22.4605 97.1522 25.0637C96.5169 26.2536 93.9265 23.001 93.5182 18.0437C89.7297 17.6529 83.042 16.8176 80.9886 15.3176C80.4729 14.9306 80.1045 14.3793 79.9442 13.7547C79.7839 13.1301 79.8414 12.4696 80.1071 11.882C80.3727 11.2945 80.8308 10.8151 81.4056 10.5229C81.9805 10.2307 82.6377 10.1433 83.269 10.2749C82.9531 6.16706 88.3351 6.72164 89.4442 8.52929C89.5893 5.52239 98.0215 5.47676 97.8027 9.99296C101.079 8.01215 104.69 12.8361 102.201 14.5992C104.715 14.4717 105.708 18.0426 103.209 18.8148H103.213Z" fill="#043F6D"/>
  <path d="M225.968 225.576C154.247 225.608 81.1758 225.927 9.72504 225.894C9.54909 225.894 9.38036 225.964 9.25595 226.089C9.13154 226.213 9.06165 226.382 9.06165 226.558C9.06165 226.734 9.13154 226.902 9.25595 227.027C9.38036 227.151 9.54909 227.221 9.72504 227.221C81.1851 227.993 154.282 227.311 225.968 227.303C226.995 227.299 227.077 225.576 225.968 225.576Z" fill="#043F6D"/>
  <path d="M53.9183 213.725C47.35 219.107 35.7471 220.322 35.2662 223.719C35.1749 224.41 65.7213 223.874 65.9389 223.465C67.1475 221.203 65.2767 215.115 65.2217 214.379C61.4408 214.702 57.6331 214.473 53.9183 213.698V213.725ZM132.248 209.59C131.503 212.461 129.666 217.429 128.972 217.897C128.277 218.365 121.63 220.551 120.54 224.457C120.385 225.012 131.844 224.793 134.887 222.387C137.93 219.98 146.988 211.545 147.107 210.57C147.225 209.594 143.256 204.545 141.655 203.692C140.771 205.393 136.037 209.59 132.248 209.59Z" fill="#043F6D"/>
  <path d="M145.782 114.226C145.181 113.563 144.41 114.109 144.873 114.928C145.636 116.31 147.043 118.181 147.915 117.97C150.837 117.061 153.571 115.634 155.988 113.758C156.897 113.159 155.807 111.632 155.142 110.305C154.316 108.616 153.717 109.561 153.671 109.779C153.544 110.324 154.807 112.505 155.116 112.968C152.812 114.438 150.397 115.726 147.893 116.82C147.12 116.014 146.414 115.147 145.782 114.226ZM162.789 118.632C163.237 119.775 163.348 121.022 163.11 122.227C162.872 123.431 162.295 124.542 161.446 125.429C160.978 125.928 160.028 125.429 160.393 124.765C160.992 123.868 161.464 122.892 161.797 121.866C162.806 117.677 158.334 116.415 156.754 115.252C156.668 115.179 156.608 115.081 156.583 114.971C156.558 114.861 156.57 114.746 156.616 114.644C156.662 114.541 156.74 114.456 156.839 114.402C156.938 114.347 157.051 114.327 157.163 114.343C159.526 114.984 161.545 116.526 162.784 118.638L162.789 118.632ZM155.301 126.428C154.248 125.991 151.303 126.382 150.139 124.456C149.231 122.966 149.948 120.985 149.613 119.267C149.496 118.659 148.541 118.823 148.533 119.45C148.468 123.221 147.129 127.109 154.365 127.627C155.662 127.7 155.998 126.718 155.299 126.428H155.301Z" fill="#043F6D"/>
  <path d="M196.693 143.2C191.633 141.219 178.031 148.348 173.561 151.206C169.663 143.71 162.403 130.572 158.117 123.738C159.799 121.094 155.509 118.977 154.066 121.576C153.833 121.992 153.74 122.471 153.797 122.944C153.855 123.416 154.062 123.859 154.387 124.207C154.713 124.554 155.14 124.79 155.608 124.879C156.076 124.968 156.56 124.906 156.991 124.702C171.665 152.023 186.592 179.444 200.33 207.228C200.384 207.345 200.462 207.45 200.56 207.535C200.658 207.619 200.772 207.682 200.896 207.719C201.02 207.756 201.15 207.766 201.278 207.749C201.406 207.732 201.529 207.687 201.639 207.619C206.39 205.045 211.524 208.01 213.204 211.108C215.177 210.523 225.299 206.719 227.797 201.64C230.295 196.561 218.929 179.262 215.231 171.43C215.111 171.43 203.401 145.823 196.693 143.2ZM208.969 210C214.973 213.028 215.429 223.201 204.971 224.164C199.919 224.632 194.195 216.65 199.355 211.509C200.601 210.287 202.197 209.485 203.92 209.215C205.644 208.944 207.409 209.219 208.969 210ZM211.426 217.405C211.1 220.13 208.81 221.902 206.101 222.402C201.077 223.31 197.243 216.877 199.996 213.197C203.589 208.391 212.178 211.163 211.431 217.405H211.426ZM219.375 203.884C210.07 184.813 200.295 165.633 190.437 146.772C190.1 146.144 191.191 145.563 191.536 146.172C202.267 165.142 211.525 183.569 221.047 203.249C221.543 204.282 219.875 204.915 219.375 203.884Z" fill="#F8B6B2"/>
  <path d="M50.248 120.268C49.2301 119.277 45.7049 120.786 44.8964 118.714C44.3605 117.351 47.9384 116.052 48.5304 115.007C48.583 114.917 48.6078 114.812 48.6017 114.707C48.5955 114.602 48.5587 114.501 48.4958 114.417C48.4329 114.333 48.3466 114.269 48.2478 114.233C48.1489 114.198 48.0417 114.192 47.9396 114.217C46.9797 114.625 46.0905 115.183 45.3047 115.87C41.8251 118.296 43.8691 120.949 46.7953 121.322C47.5581 121.412 49.7484 121.631 50.2842 121.168C50.3451 121.109 50.3936 121.038 50.4266 120.96C50.4597 120.882 50.4767 120.798 50.4767 120.713C50.4767 120.628 50.4597 120.544 50.4266 120.466C50.3936 120.388 50.3451 120.317 50.2842 120.258L50.248 120.268ZM59.6337 115.725C59.8338 116.215 58.2075 118.615 57.5347 118.323C55.8265 117.614 47.6494 113.626 47.9489 112.254C48.3694 111.235 48.9869 110.309 49.7659 109.528C50.0935 109.165 50.675 109.61 50.5299 110.028C50.3474 110.636 49.0581 112.127 49.1119 112.318C49.2394 112.762 57.089 116.97 57.6435 117.215C57.9431 116.747 58.2157 116.024 58.5526 115.577C58.6079 115.515 58.675 115.464 58.75 115.427C58.8251 115.39 58.9066 115.369 58.9899 115.364C59.0733 115.359 59.1568 115.37 59.2358 115.397C59.3147 115.424 59.3875 115.467 59.45 115.522C59.6571 115.713 59.6103 115.867 59.6337 115.725ZM56.277 119.141C55.3691 119.05 55.3691 120.84 55.1234 121.803C54.9233 122.485 54.6881 123.166 54.4518 123.848C54.2154 124.53 55.4053 125.556 56.4595 122.148C56.6444 121.53 57.4353 119.258 56.277 119.141ZM51.1173 127.044C51.8472 126.724 52.4913 126.235 52.9975 125.619C53.7521 124.638 55.0602 125.454 53.6796 126.901C51.384 129.285 49.6513 127.705 51.1114 127.044H51.1173ZM49.154 125.646C48.8721 125.763 48.5187 125.997 48.5819 126.364C48.8358 127.918 53.2069 125.265 51.8579 124.275C51.2507 123.823 50.8517 124.828 49.133 125.646H49.154ZM49.2909 123.157C48.6544 122.584 47.901 123.875 46.7286 124.384C46.3378 124.546 45.5376 124.729 45.6651 125.292C46.0161 126.874 50.4352 124.165 49.2991 123.139L49.2909 123.157ZM45.3293 122.748C45.9201 122.249 46.3917 122.13 46.5835 122.584C47.1276 123.82 44.4027 124.924 43.1578 123.784C42.1855 122.876 42.3762 120.659 43.4304 121.058C43.8843 121.231 43.703 122.085 43.9113 122.531C43.9772 122.653 44.0703 122.758 44.1832 122.838C44.2962 122.919 44.4261 122.973 44.5629 122.995C44.6998 123.018 44.84 123.009 44.9728 122.969C45.1057 122.929 45.2276 122.859 45.3293 122.765V122.748Z" fill="#043F6D"/>
  <path d="M81.5127 86.7684C77.3148 74.9514 78.6228 53.3321 80.5943 46.5906C80.8131 45.8184 71.6356 50.4972 69.691 54.8859C67.7465 59.2745 63.882 80.9172 62.4956 84.1511C61.1091 87.385 50.42 107.266 50.076 107.62C49.732 107.975 60.5803 115.997 61.3244 115.479C61.824 115.128 64.8859 111.254 67.0036 108.459C69.5612 81.3934 68.3935 80.8084 70.365 67.4552C70.3633 67.3998 70.3734 67.3447 70.3947 67.2936C70.4159 67.2424 70.4478 67.1964 70.4882 67.1585C70.5286 67.1206 70.5766 67.0917 70.629 67.0738C70.6814 67.0558 70.737 67.0492 70.7921 67.0544C70.8473 67.0596 70.9007 67.0764 70.9488 67.1038C70.997 67.1312 71.0387 67.1685 71.0714 67.2133C71.104 67.258 71.1267 67.3092 71.1381 67.3634C71.1494 67.4176 71.1491 67.4736 71.1372 67.5277C70.6692 72.7225 69.1821 103.667 69.0569 105.715C68.8662 108.823 66.6853 124.114 67.2399 124.941C67.6763 125.549 73.6 126.059 75.0719 124.941C76.5437 123.822 80.7943 112.644 81.315 111.864C79.8946 108.165 80.2398 93.1917 81.5127 86.7684ZM141.885 82.1433C144.183 85.7774 153.787 106.203 153.905 107.357C154.023 108.51 144.028 114.007 143.229 113.558C142.43 113.109 128.604 91.9339 126.766 89.6349C123.916 86.0687 108.988 76.2278 103.896 73.827C103.405 73.593 102.924 74.3266 103.387 74.653C106.222 76.6525 109.138 78.2882 112.127 80.4047C114.018 104.507 120.105 123.89 119.105 124.78C118.342 125.461 92.6383 126.279 90.3228 125.589C88.0074 124.899 82.7541 115.031 82.1445 109.979C81.535 104.927 81.3091 91.7069 82.9261 86.3553C87.4154 71.4367 99.2815 46.6689 101.707 46.3144C104.132 45.9599 114.145 51.7666 116.626 53.6468C123.372 58.6872 142.981 82.6897 141.888 82.1433H141.885ZM85.0192 96.3624C85.0389 96.6783 85.1732 96.9761 85.3968 97.2001C85.6205 97.424 85.9182 97.5587 86.234 97.5788C86.5499 97.5989 86.8622 97.503 87.1125 97.3093C87.3627 97.1155 87.5337 96.837 87.5932 96.5262C87.9723 93.0009 84.4202 93.4549 85.0192 96.3624ZM87.936 106.411C88.5655 104.422 86.0184 102.341 85.5469 105.167C85.1467 107.523 87.3499 108.261 87.936 106.411ZM105.526 56.9392C106.835 56.3027 104.445 50.2152 103.954 49.1704C103.699 48.6345 103.045 48.8346 103.264 49.4255C104.082 51.5144 104.57 53.7183 104.708 55.9576C103.596 56.3759 102.52 56.8846 101.492 57.4786C96.8491 60.0233 97.9489 59.7016 100.029 64.7478C100.42 65.6557 100.82 66.2688 100.111 67.0644C94.8964 72.9425 88.727 80.4117 85.6651 87.5253C85.4311 88.0612 86.0558 88.2894 86.3273 87.798C91.2155 78.9937 94.7232 75.0777 100.866 68.0542C102.27 66.4373 101.837 66.2372 100.475 62.7483C99.1879 59.4863 98.2753 60.441 105.545 56.9427L105.526 56.9392ZM77.8775 82.8699C71.9293 66.0793 72.0275 68.3081 73.6445 64.9619C73.9896 64.2353 74.9795 63.063 74.6893 62.609C72.8711 59.7098 71.6999 59.4009 72.8711 57.0387C73.9265 54.8679 75.2186 52.8204 76.7239 50.9336C77.0878 50.4656 77.633 50.8423 77.3241 51.315C75.8477 53.4396 74.5384 55.6755 73.4081 58.0027C72.8898 59.7378 76.3062 62.0451 75.8651 62.9811C73.1402 68.6146 73.2911 66.5344 75.3293 72.767C76.4291 76.0921 77.5921 79.3997 78.5737 82.7611C78.7597 83.2513 78.0753 83.421 77.8775 82.8699Z" fill="#043F6D"/>
  <path d="M142.379 200.696C141.595 199.797 126.306 163.189 125.507 161.008C124.708 158.827 115.562 130.798 114.885 127.101C111.995 127.452 92.4605 128.309 89.7438 127.101C87.6272 126.192 82.7296 118.378 81.975 114.544C80.3201 118.539 78.3421 122.391 76.0606 126.064C75.2416 127.146 70.3814 127.446 68.4825 126.883C68.2649 127.592 59.1611 164.218 58.589 168.115C58.0169 172.012 52.5916 207.719 52.2289 210.82C52.1014 211.728 66.2841 213.318 66.3754 212.107C66.4666 210.896 76.07 173.283 76.6421 171.791C77.2142 170.299 87.3991 148.59 91.9153 140.992C89.835 136.223 89.9801 134.733 85.155 132.87C84.4834 132.607 84.8286 131.961 85.506 132.134C89.1939 133.043 90.4305 134.305 91.7842 137.186C96.1273 146.389 100.559 161.136 105.458 168.468C107.002 170.794 128.858 207.029 130.246 208.318C131.633 209.608 143.14 201.569 142.379 200.696Z" fill="#043F6D"/>
  <path d="M59.7426 138.466C59.2231 137.432 29.759 119.387 28.0695 119.614C25.8465 119.868 5.51777 145.182 5.85473 146.725C6.19169 148.268 46.4865 171.685 47.8671 171.43C49.2477 171.175 60.255 139.494 59.7426 138.466ZM54.5724 130.544C53.7463 134.042 52.5377 132.906 52.6828 132.134C52.9168 130.807 53.2737 129.49 53.5919 128.19C53.8364 127.282 54.563 127.118 54.9 127.673C55.2369 128.227 54.6905 129.862 54.5361 130.544H54.5724ZM42.2979 119.45C42.6033 120.035 41.9984 119.918 41.1349 120.222C39.0172 120.994 38.7177 124.184 37.5734 123.53C36.5731 122.945 39.7169 119.305 40.5534 118.886C40.8598 118.731 41.215 118.703 41.5417 118.809C41.8684 118.915 42.1402 119.145 42.2979 119.45ZM51.156 153.304L46.8129 150.93C46.5151 151.656 46.1242 152.34 45.6499 152.966C44.5817 152.693 43.578 152.211 42.6969 151.548C42.6969 151.475 43.0876 150.394 43.6059 149.159L27.8964 140.611C27.4198 141.482 26.8404 142.294 26.1706 143.028C24.9424 142.597 23.8052 141.941 22.8174 141.094C23.2544 140.234 23.7493 139.405 24.2986 138.612C22.4266 137.559 20.5546 136.495 18.72 135.396C18.0379 134.996 18.72 134.06 19.3554 134.387C21.2906 135.345 23.2112 136.332 25.1164 137.349C25.5679 136.581 26.0943 135.86 26.6877 135.196C27.8507 135.607 28.9308 136.222 29.8772 137.013C29.568 137.792 29.1783 138.537 28.7142 139.236L44.1582 147.641C44.4262 146.814 44.8184 146.033 45.3212 145.323C46.4839 145.726 47.5778 146.305 48.5644 147.04C48.2722 147.87 47.9203 148.678 47.5114 149.458L52.0545 151.915C52.9285 152.44 52.065 153.794 51.156 153.304Z" fill="#F8B6B2"/>
</svg>